# File created by Blade
# Date/Time:  Mon Sep 22 17:23:16 2014
# Frame Rate: 120.000 fps
#------------------------------------------------------
:FULLY-SPECIFIED
:DEGREES
3383
root 0.517179 39.415828 -0.378340 16.936934 -16.765034 -43.212508
RightUpLeg 4.944170 -25.745504 -38.550392
RightLeg 113.812271 -0.000000 -0.000000
RightFoot 13.126727 -19.829041 15.560074
RightToeBase 3.047514 -0.000000 -0.000000
LeftUpLeg -2.867545 13.040350 35.928020
LeftLeg 17.538802 -0.000000 -0.000000
LeftFoot -23.043286 17.623745 -20.090796
LeftToeBase 6.114773 -0.000000 -0.000000
Spine 6.190265 -9.942214 11.437817
RightShoulder -1.861768 -29.487711 -5.533855
RightArm 21.039196 -16.705577 53.908725
RightForeArm -185.314756 -0.000000 109.450493
RightHand 95.001589 -0.000000 -166.416220
RightHandThumb1 -24.326973 -0.000000 -32.862282
LeftShoulder -19.732929 34.327078 9.365170
LeftArm 59.215625 -26.759434 -64.664009
LeftForeArm 63.282293 -0.000000 136.452546
LeftHand -26.181026 0.000000 -22.624487
LeftHandThumb1 -26.253704 0.000000 33.147579
Head 9.248393 24.733749 36.889894
3384
root 0.490261 39.429477 -0.379250 17.383910 -17.148945 -43.653099
RightUpLeg 5.060473 -25.837064 -38.467144
RightLeg 113.529860 -0.000000 -0.000000
RightFoot 13.252308 -19.760551 15.840325
RightToeBase 3.225146 -0.000000 -0.000000
LeftUpLeg -2.770436 13.533021 36.298096
LeftLeg 17.559939 -0.000000 -0.000000
LeftFoot -23.166170 17.576417 -20.291561
LeftToeBase 6.257486 -0.000000 -0.000000
Spine 5.967382 -9.781098 11.734485
RightShoulder -1.709335 -29.383567 -5.651522
RightArm 21.164032 -16.643037 53.804372
RightForeArm -185.539371 -0.000000 109.534495
RightHand 94.973820 -0.000000 -166.353523
RightHandThumb1 -24.326973 -0.000000 -32.862282
LeftShoulder -20.278219 34.371532 8.997246
LeftArm 59.149654 -27.026362 -64.864593
LeftForeArm 63.085890 -0.000000 136.635192
LeftHand -26.130015 -0.000000 -22.646725
LeftHandThumb1 -26.253704 0.000000 33.147579
Head 9.292256 25.077500 36.873350
3385
root 0.471393 39.443305 -0.387142 17.748334 -17.418127 -44.060957
RightUpLeg 5.273923 -25.862444 -38.398894
RightLeg 113.263667 -0.000000 -0.000000
RightFoot 13.453898 -19.717474 16.121181
RightToeBase 3.313340 -0.000000 -0.000000
LeftUpLeg -2.724312 13.866823 36.647009
LeftLeg 17.610394 -0.000000 -0.000000
LeftFoot -23.297116 17.590548 -20.482078
LeftToeBase 6.359857 -0.000000 -0.000000
Spine 5.838412 -9.548847 12.023074
RightShoulder -1.679556 -29.248340 -5.688965
RightArm 21.185598 -16.505349 53.784844
RightForeArm -185.696566 0.000000 109.644509
RightHand 94.838664 0.000000 -166.308129
RightHandThumb1 -24.326973 -0.000000 -32.862282
LeftShoulder -20.518946 34.474873 8.828662
LeftArm 59.210943 -27.314117 -65.231329
LeftForeArm 63.044886 -0.000000 136.824422
LeftHand -26.150609 -0.000000 -22.642172
LeftHandThumb1 -26.253704 0.000000 33.147579
Head 9.218794 25.272933 36.858556
3386
root 0.455856 39.453901 -0.398562 18.108359 -17.672174 -44.404100
RightUpLeg 5.466022 -25.812689 -38.364363
RightLeg 113.027689 -0.000000 -0.000000
RightFoot 13.678539 -19.688385 16.322326
RightToeBase 3.295481 -0.000000 -0.000000
LeftUpLeg -2.712350 14.189302 36.921365
LeftLeg 17.646350 -0.000000 -0.000000
LeftFoot -23.428451 17.616209 -20.675529
LeftToeBase 6.563259 -0.000000 -0.000000
Spine 5.700297 -9.328740 12.229127
RightShoulder -1.643611 -29.178952 -5.705355
RightArm 21.189200 -16.306706 53.808643
RightForeArm -185.724144 -0.000000 109.783195
RightHand 94.885620 -0.000000 -166.256334
RightHandThumb1 -24.326973 -0.000000 -32.862282
LeftShoulder -20.774115 34.546447 8.679541
LeftArm 59.314522 -27.572389 -65.575782
LeftForeArm 63.012709 -0.000000 136.963860
LeftHand -26.134085 -0.000000 -22.634720
LeftHandThumb1 -26.253704 0.000000 33.147579
Head 9.135563 25.448524 36.860110
3387
root 0.440450 39.466298 -0.416211 18.490840 -17.888342 -44.741281
RightUpLeg 5.622048 -25.714947 -38.271979
RightLeg 112.829488 -0.000000 -0.000000
RightFoot 13.913295 -19.681276 16.414047
RightToeBase 3.210418 -0.000000 -0.000000
LeftUpLeg -2.756221 14.556941 37.198866
LeftLeg 17.694629 -0.000000 -0.000000
LeftFoot -23.531507 17.590304 -20.844437
LeftToeBase 6.727610 -0.000000 -0.000000
Spine 5.556239 -9.103713 12.422725
RightShoulder -1.642207 -29.093674 -5.689944
RightArm 21.148166 -16.116689 53.856070
RightForeArm -185.778107 -0.000000 109.932969
RightHand 94.841189 -0.000000 -166.296309
RightHandThumb1 -24.326973 -0.000000 -32.862282
LeftShoulder -21.015118 34.643509 8.556762
LeftArm 59.470725 -27.867445 -65.970028
LeftForeArm 62.953148 -0.000000 137.103802
LeftHand -26.059244 -0.000000 -22.655231
LeftHandThumb1 -26.253704 0.000000 33.147579
Head 8.987215 25.584177 36.855291
3388
root 0.426684 39.477149 -0.439654 18.920373 -18.090160 -45.053154
RightUpLeg 5.718530 -25.577264 -38.131513
RightLeg 112.664921 -0.000000 -0.000000
RightFoot 14.013781 -19.703960 16.437687
RightToeBase 3.295245 -0.000000 -0.000000
LeftUpLeg -2.863219 14.940515 37.434133
LeftLeg 17.732683 -0.000000 -0.000000
LeftFoot -23.611162 17.610164 -20.955766
LeftToeBase 6.818738 -0.000000 -0.000000
Spine 5.362380 -8.901244 12.595898
RightShoulder -1.610859 -29.027992 -5.702288
RightArm 21.083922 -15.920950 53.956808
RightForeArm -185.878840 -0.000000 110.095666
RightHand 94.857270 0.000000 -166.133341
RightHandThumb1 -24.326973 -0.000000 -32.862282
LeftShoulder -21.310433 34.718291 8.395197
LeftArm 59.642260 -28.148117 -66.313937
LeftForeArm 62.728483 -0.000000 137.217781
LeftHand -26.075494 -0.000000 -22.504881
LeftHandThumb1 -26.253704 0.000000 33.147579
Head 8.819637 25.774529 36.865391
